<svg width="197" height="197" viewBox="0 0 197 197" fill="none" xmlns="http://www.w3.org/2000/svg">
<rect width="197" height="197" fill="white"/>
<path d="M62.1589 115V114.04L63.4069 113.752C64.6229 113.432 65.5829 112.888 66.2869 112.12C66.9909 111.288 67.3429 110.232 67.3429 108.952C67.3429 106.584 67.3429 104.248 67.3429 101.944C67.4069 99.576 67.4389 97.208 67.4389 94.84V70.744H62.0629V69.688L64.1749 69.304C65.4549 69.176 66.3829 68.728 66.9589 67.96C67.5349 67.192 67.9509 66.136 68.2069 64.792C68.8469 62.296 69.7749 60.12 70.9909 58.264C72.2709 56.344 73.7109 54.584 75.3109 52.984C77.7429 50.68 80.3029 49.08 82.9909 48.184C85.7429 47.224 88.4309 46.744 91.0549 46.744C93.6149 46.744 95.9509 47.288 98.0629 48.376C100.175 49.4 101.231 51.128 101.231 53.56C101.231 55.288 100.719 56.664 99.6949 57.688C98.6709 58.648 97.2309 59.128 95.3749 59.128C93.8389 59.128 92.4309 58.712 91.1509 57.88C89.8709 57.048 88.6229 55.576 87.4069 53.464L86.0629 51.832C85.3589 50.936 84.6549 50.52 83.9509 50.584C83.2469 50.584 82.7349 51.096 82.4149 52.12C81.9669 54.36 81.6149 56.984 81.3589 59.992C81.1669 63 81.0709 65.944 81.0709 68.824H91.8229V70.744H81.0709V108.76C81.0709 111.192 82.3509 112.76 84.9109 113.464L87.3109 114.04V115H62.1589Z" fill="#E36614"/>
<path d="M82.17 154.08V153.12L83.322 152.736C85.69 152.096 86.874 150.56 86.874 148.128V95.904C86.874 94.496 86.618 93.44 86.106 92.736C85.658 92.032 84.794 91.552 83.514 91.296L82.17 91.008V90.048L98.49 84.48L99.45 85.44L100.314 88.416C102.426 87.136 104.762 86.144 107.322 85.44C109.946 84.736 112.634 84.384 115.386 84.384C120.89 84.384 125.242 86.496 128.442 90.72C131.706 94.88 133.338 100.864 133.338 108.672C133.338 116.352 131.546 122.4 127.962 126.816C124.442 131.232 119.45 133.44 112.986 133.44C107.93 133.44 103.674 132.704 100.218 131.232V147.84C100.218 150.4 101.37 152 103.674 152.64L105.498 153.12V154.08H82.17ZM108.378 130.656C111.578 130.656 114.106 128.992 115.962 125.664C117.882 122.336 118.842 116.8 118.842 109.056C118.842 101.312 117.946 95.904 116.154 92.832C114.362 89.696 111.77 88.128 108.378 88.128C106.01 88.128 103.386 88.896 100.506 90.432V129.12C102.938 130.144 105.562 130.656 108.378 130.656Z" fill="#E36614"/>
</svg>
