<svg width="508" height="865" viewBox="0 0 508 865" fill="none" xmlns="http://www.w3.org/2000/svg">
<path d="M280.36 563.24V490.88H342.28C355.24 490.88 364.96 493.76 371.44 499.52C377.92 505.04 381.16 514.04 381.16 526.52C381.16 539.48 377.92 548.84 371.44 554.6C364.96 560.36 355.24 563.24 342.28 563.24H280.36ZM223.84 446.96V704H280.36V603.56H336.88C351.04 603.56 361.24 606.68 367.48 612.92C373.72 619.16 377.8 629 379.72 642.44C381.16 652.76 382.24 663.56 382.96 674.84C383.68 686.12 385.6 695.84 388.72 704H445.24C442.6 700.4 440.56 696.08 439.12 691.04C437.92 685.76 436.96 680.24 436.24 674.48C435.76 668.72 435.4 663.08 435.16 657.56C434.92 652.04 434.68 647.24 434.44 643.16C433.96 636.68 433 630.2 431.56 623.72C430.36 617.24 428.32 611.36 425.44 606.08C422.56 600.56 418.84 595.88 414.28 592.04C409.72 587.96 403.96 584.96 397 583.04V582.32C411.4 576.56 421.72 568.16 427.96 557.12C434.44 546.08 437.68 533 437.68 517.88C437.68 508.04 435.88 498.92 432.28 490.52C428.92 481.88 423.88 474.32 417.16 467.84C410.68 461.36 402.76 456.32 393.4 452.72C384.28 448.88 373.96 446.96 362.44 446.96H223.84Z" fill="black"/>
<path d="M280.36 563.24H279.36V564.24H280.36V563.24ZM280.36 490.88V489.88H279.36V490.88H280.36ZM371.44 499.52L370.776 500.267L370.784 500.274L370.792 500.281L371.44 499.52ZM223.84 446.96V445.96H222.84V446.96H223.84ZM223.84 704H222.84V705H223.84V704ZM280.36 704V705H281.36V704H280.36ZM280.36 603.56V602.56H279.36V603.56H280.36ZM367.48 612.92L368.187 612.213L368.187 612.213L367.48 612.92ZM379.72 642.44L380.71 642.302L380.71 642.299L379.72 642.44ZM382.96 674.84L383.958 674.776L383.958 674.776L382.96 674.84ZM388.72 704L387.786 704.357L388.032 705H388.72V704ZM445.24 704V705H447.213L446.046 703.409L445.24 704ZM439.12 691.04L438.145 691.262L438.151 691.288L438.158 691.315L439.12 691.04ZM436.24 674.48L435.243 674.563L435.245 674.584L435.248 674.604L436.24 674.48ZM434.44 643.16L435.438 643.101L435.438 643.094L435.437 643.086L434.44 643.16ZM431.56 623.72L430.577 623.902L430.58 623.92L430.584 623.937L431.56 623.72ZM425.44 606.08L424.553 606.543L424.558 606.551L424.562 606.559L425.44 606.08ZM414.28 592.04L413.613 592.785L413.624 592.795L413.636 592.805L414.28 592.04ZM397 583.04H396V583.801L396.734 584.004L397 583.04ZM397 582.32L396.629 581.392L396 581.643V582.32H397ZM427.96 557.12L427.098 556.614L427.093 556.621L427.089 556.628L427.96 557.12ZM432.28 490.52L431.348 490.882L431.354 490.898L431.361 490.914L432.28 490.52ZM417.16 467.84L416.453 468.547L416.459 468.554L416.466 468.56L417.16 467.84ZM393.4 452.72L393.012 453.642L393.026 453.648L393.041 453.653L393.4 452.72ZM281.36 563.24V490.88H279.36V563.24H281.36ZM280.36 491.88H342.28V489.88H280.36V491.88ZM342.28 491.88C355.113 491.88 364.551 494.734 370.776 500.267L372.104 498.773C365.369 492.786 355.367 489.88 342.28 489.88V491.88ZM370.792 500.281C376.96 505.536 380.16 514.193 380.16 526.52H382.16C382.16 513.887 378.88 504.544 372.088 498.759L370.792 500.281ZM380.16 526.52C380.16 539.337 376.955 548.36 370.776 553.853L372.104 555.347C378.885 549.32 382.16 539.623 382.16 526.52H380.16ZM370.776 553.853C364.551 559.386 355.113 562.24 342.28 562.24V564.24C355.367 564.24 365.369 561.334 372.104 555.347L370.776 553.853ZM342.28 562.24H280.36V564.24H342.28V562.24ZM222.84 446.96V704H224.84V446.96H222.84ZM223.84 705H280.36V703H223.84V705ZM281.36 704V603.56H279.36V704H281.36ZM280.36 604.56H336.88V602.56H280.36V604.56ZM336.88 604.56C350.929 604.56 360.807 607.661 366.773 613.627L368.187 612.213C361.673 605.699 351.151 602.56 336.88 602.56V604.56ZM366.773 613.627C372.797 619.651 376.825 629.247 378.73 642.581L380.71 642.299C378.775 628.753 374.643 618.669 368.187 612.213L366.773 613.627ZM378.73 642.578C380.166 652.871 381.243 663.647 381.962 674.904L383.958 674.776C383.237 663.473 382.154 652.649 380.71 642.302L378.73 642.578ZM381.962 674.904C382.687 686.256 384.621 696.08 387.786 704.357L389.654 703.643C386.579 695.6 384.673 685.984 383.958 674.776L381.962 674.904ZM388.72 705H445.24V703H388.72V705ZM446.046 703.409C443.487 699.919 441.495 695.711 440.082 690.765L438.158 691.315C439.625 696.449 441.713 700.881 444.434 704.591L446.046 703.409ZM440.095 690.818C438.903 685.573 437.948 680.085 437.232 674.356L435.248 674.604C435.972 680.395 436.937 685.947 438.145 691.262L440.095 690.818ZM437.237 674.397C436.758 668.65 436.398 663.023 436.159 657.517L434.161 657.603C434.402 663.137 434.762 668.79 435.243 674.563L437.237 674.397ZM436.159 657.517C435.919 651.993 435.679 647.188 435.438 643.101L433.442 643.219C433.681 647.292 433.921 652.087 434.161 657.603L436.159 657.517ZM435.437 643.086C434.954 636.557 433.986 630.029 432.536 623.503L430.584 623.937C432.014 630.371 432.966 636.803 433.443 643.234L435.437 643.086ZM432.543 623.538C431.326 616.964 429.253 610.982 426.318 605.601L424.562 606.559C427.387 611.738 429.394 617.516 430.577 623.902L432.543 623.538ZM426.327 605.617C423.389 599.987 419.588 595.203 414.924 591.275L413.636 592.805C418.092 596.557 421.731 601.133 424.553 606.543L426.327 605.617ZM414.947 591.295C410.253 587.095 404.348 584.03 397.266 582.076L396.734 584.004C403.572 585.89 409.187 588.825 413.613 592.785L414.947 591.295ZM398 583.04V582.32H396V583.04H398ZM397.371 583.248C411.934 577.423 422.455 568.891 428.831 557.612L427.089 556.628C420.985 567.429 410.866 575.697 396.629 581.392L397.371 583.248ZM428.822 557.626C435.408 546.407 438.68 533.145 438.68 517.88H436.68C436.68 532.854 433.472 545.753 427.098 556.614L428.822 557.626ZM438.68 517.88C438.68 507.915 436.856 498.66 433.199 490.126L431.361 490.914C434.904 499.18 436.68 508.165 436.68 517.88H438.68ZM433.212 490.158C429.799 481.382 424.678 473.7 417.854 467.12L416.466 468.56C423.082 474.94 428.041 482.378 431.348 490.882L433.212 490.158ZM417.867 467.133C411.279 460.545 403.237 455.432 393.759 451.787L393.041 453.653C402.283 457.208 410.081 462.175 416.453 468.547L417.867 467.133ZM393.788 451.798C384.527 447.899 374.072 445.96 362.44 445.96V447.96C373.848 447.96 384.033 449.861 393.012 453.642L393.788 451.798ZM362.44 445.96H223.84V447.96H362.44V445.96Z" fill="black"/>
<path d="M234 447.6L240.4 480H280.4V325.6H160.4V372.4H223.6C221.733 392.4 215.067 407.733 203.6 418.4C192.4 428.8 176.4 434 155.6 434C141.467 434 129.467 431.333 119.6 426C109.733 420.4 101.733 413.067 95.6 404C89.4667 394.933 84.9333 384.8 82 373.6C79.3333 362.133 78 350.4 78 338.4C78 325.867 79.3333 313.733 82 302C84.9333 290.267 89.4667 279.867 95.6 270.8C101.733 261.467 109.733 254.133 119.6 248.8C129.467 243.2 141.467 240.4 155.6 240.4C170.8 240.4 183.733 244.4 194.4 252.4C205.067 260.4 212.267 272.4 216 288.4H276C274.4 272.133 270 257.733 262.8 245.2C255.6 232.667 246.4 222.133 235.2 213.6C224.267 205.067 211.867 198.667 198 194.4C184.4 189.867 170.267 187.6 155.6 187.6C133.733 187.6 114 191.467 96.4 199.2C79.0667 206.933 64.4 217.6 52.4 231.2C40.4 244.8 31.2 260.8 24.8 279.2C18.4 297.333 15.2 317.067 15.2 338.4C15.2 359.2 18.4 378.667 24.8 396.8C31.2 414.667 40.4 430.267 52.4 443.6C64.4 456.933 79.0667 467.467 96.4 475.2C114 482.667 133.733 486.4 155.6 486.4C169.467 486.4 183.2 483.6 196.8 478C210.4 472.133 222.8 462 234 447.6Z" fill="black"/>
<rect x="190" y="264" width="82" height="61" fill="white"/>
<path d="M383.2 0H317.2L317.701 194C317.701 227.5 313.201 244 284.201 245C259.5 245 254.5 231 252.701 230.5C252.701 230.5 223 188.977 158 187.5C93.0001 186.023 17.5 228 15 337.5L121.5 230.5L186 233.5L203.5 261C220.5 288.5 253.701 297 283.201 299C371.701 300.5 383.701 235.5 381.701 201L383.2 0Z" fill="black"/>
</svg>
