<svg width="200" height="200" viewBox="0 0 200 200" fill="none" xmlns="http://www.w3.org/2000/svg">
<rect width="200" height="200" rx="30" fill="#FAFAFA"/>
<mask id="mask0_236_148" style="mask-type:alpha" maskUnits="userSpaceOnUse" x="17" y="12" width="167" height="158">
<path d="M103.439 20.9549L100.5 18.8197L97.5611 20.9549L26.7074 72.4331L23.7684 74.5684L24.891 78.0233L51.9547 161.317L53.0773 164.772H56.71H144.29H147.923L149.045 161.317L176.109 78.0233L177.232 74.5684L174.293 72.4331L103.439 20.9549Z" stroke="black" stroke-width="10"/>
</mask>
<g mask="url(#mask0_236_148)">
<rect x="-41" y="133.28" width="76" height="76" transform="rotate(-72 -41 133.28)" fill="#0D80CF"/>
<rect x="34.4852" y="190.157" width="76" height="76" transform="rotate(-144 34.4852 190.157)" fill="#0D80CF"/>
<rect x="24.1884" y="-25.1795" width="76" height="76" fill="#1FC39E"/>
<rect x="-7.57825" y="64.187" width="76" height="76" transform="rotate(-72 -7.57825 64.187)" fill="#1FC39E"/>
<rect x="194.949" y="-11.2164" width="76" height="76" transform="rotate(72 194.949 -11.2164)" fill="#CFBC5E"/>
<rect x="100.14" y="-18.8126" width="76" height="76" fill="#CFBC5E"/>
<rect x="236.067" y="156.774" width="76" height="76" transform="rotate(144 236.067 156.774)" fill="#BD7B46"/>
<rect x="207.993" y="64.2573" width="76" height="76" transform="rotate(72 207.993 64.2573)" fill="#BD7B46"/>
<rect x="87.7426" y="246.139" width="76" height="76" transform="rotate(-144 87.7426 246.139)" fill="#BA4552"/>
<rect x="167.056" y="190.851" width="76" height="76" transform="rotate(144 167.056 190.851)" fill="#BA4552"/>
</g>
<g clip-path="url(#clip0_236_148)">
<path d="M46.073 80.4737C51.3663 84.6072 56.2737 86.215 60.4772 86.215C60.4873 86.215 60.4978 86.215 60.5079 86.215C63.0694 86.2157 65.2943 85.6314 67.1466 84.8198L64.5935 102.082L56.0037 135.642C55.3894 138.043 56.8455 140.484 59.2549 141.095C61.665 141.708 64.117 140.259 64.7316 137.858L72.8208 106.252L75.0066 106.573V136.742C75.0066 139.219 77.0226 141.227 79.5098 141.227C81.9966 141.227 84.0133 139.219 84.0133 136.742V105.336C84.0349 105.248 84.0534 105.159 84.0666 105.068L87.0921 84.6117C87.338 84.4436 87.563 84.2369 87.751 83.9854H87.7507C87.8103 83.9068 88.2537 83.3506 89.0198 82.61C88.59 82.2698 88.0947 81.8898 87.5529 81.4948C86.5856 80.7892 85.4763 80.0416 84.3544 79.4089C84.1057 79.2686 83.8563 79.1338 83.6076 79.0066C83.8943 79.1025 84.1741 79.2043 84.4483 79.3099C85.5 79.7153 86.4572 80.1836 87.3 80.6627C87.4183 80.7298 87.5327 80.7972 87.6464 80.8646C88.3842 81.3013 89.0219 81.7369 89.543 82.1239C90.0035 82.4658 90.3733 82.7687 90.6422 83.0008C90.644 83.0022 90.6464 83.0043 90.6485 83.006V98.4991V105.37V136.916C90.6485 139.393 92.6648 141.401 95.1516 141.401C97.6388 141.401 99.6555 139.393 99.6555 136.916V108.172H101.344V136.915C101.344 139.392 103.361 141.4 105.848 141.4C108.336 141.4 110.352 139.392 110.352 136.915V105.369V98.4984V83.0046C110.353 83.0032 110.355 83.0015 110.357 83.0001C110.626 82.768 110.996 82.4651 111.457 82.1232C111.978 81.7362 112.615 81.3009 113.353 80.8642C113.467 80.7972 113.581 80.7298 113.699 80.6627C114.542 80.1836 115.499 79.7153 116.551 79.3099C116.825 79.2043 117.105 79.1029 117.391 79.0066C117.143 79.1338 116.894 79.2686 116.645 79.4089C115.523 80.0416 114.413 80.7892 113.446 81.4944C112.904 81.8898 112.409 82.2698 111.979 82.6096C112.745 83.3506 113.189 83.9068 113.249 83.9854H113.248C113.436 84.2369 113.662 84.4432 113.907 84.6117L116.933 105.068C116.947 105.159 116.965 105.248 116.986 105.336V136.742C116.986 139.219 119.003 141.227 121.49 141.227C123.977 141.227 125.993 139.219 125.993 136.742V106.573L128.179 106.252L136.268 137.858C136.883 140.259 139.335 141.708 141.745 141.095C144.154 140.484 145.61 138.043 144.996 135.642L136.406 102.082L133.853 84.8202C135.705 85.6314 137.93 86.2154 140.491 86.2143C140.501 86.2143 140.512 86.2143 140.522 86.2143C144.726 86.2147 149.632 84.6069 154.927 80.4734C156.14 79.5281 156.356 77.7817 155.407 76.572C154.458 75.3623 152.704 75.1479 151.49 76.0936C146.893 79.657 143.281 80.6481 140.491 80.6565C140.318 80.6565 140.148 80.652 139.98 80.6443C139.882 81.0914 139.695 81.5191 139.421 81.904C138.768 82.8243 137.702 83.3732 136.569 83.3732C135.846 83.3732 135.151 83.1533 134.558 82.7368C134.236 82.5106 133.853 82.2434 133.428 81.9461C132.395 81.2234 131.106 80.3153 129.77 79.3405C130.906 79.7834 132.082 80.3539 133.301 81.088C133.846 81.4159 134.399 81.7755 134.961 82.1691C136.22 83.0553 137.962 82.7566 138.85 81.5031C139.053 81.2179 139.191 80.907 139.273 80.587C139.552 79.5031 139.155 78.3135 138.182 77.6295C135.18 75.5089 132.207 74.1391 129.364 73.3508C129.11 74.0435 128.776 74.6908 128.371 75.2834C128.322 75.356 128.272 75.4287 128.22 75.4999C127.796 76.0832 127.305 76.6085 126.757 77.0684C126.705 77.1122 126.655 77.1594 126.602 77.2022C126.139 77.5729 125.636 77.8925 125.105 78.1642C123.879 78.7919 122.496 79.147 121.035 79.147C120.358 79.147 119.677 79.0685 119.011 78.9139C118.777 78.8593 118.547 78.7937 118.32 78.7217C118.252 78.7002 118.184 78.6797 118.117 78.6564C117.223 78.3497 116.393 77.906 115.651 77.345C114.798 76.7002 114.061 75.9004 113.478 74.9676C113.414 74.8662 113.355 74.7634 113.296 74.6598C113.293 74.6546 113.29 74.6498 113.287 74.6446C112.737 74.8902 112.215 75.1448 111.721 75.4043C110.368 74.574 108.781 73.7979 106.986 73.2289C106.909 73.3108 106.83 73.3907 106.749 73.47C105.134 75.0618 102.924 76.0199 100.508 76.0199C99.8309 76.0199 99.15 75.9411 98.4844 75.7865C96.8613 75.4102 95.4108 74.6067 94.2555 73.4679C94.1752 73.3887 94.095 73.3095 94.0179 73.2271C92.2207 73.7969 90.6321 74.5733 89.2776 75.4047C88.7847 75.1452 88.2617 74.8905 87.712 74.6449C87.7092 74.6501 87.706 74.655 87.7033 74.6602C87.6443 74.7634 87.5846 74.8662 87.5215 74.9676C86.9386 75.9004 86.2012 76.6998 85.3483 77.345C84.6063 77.906 83.7771 78.35 82.8816 78.6568C82.815 78.6797 82.747 78.7006 82.6793 78.7221C82.4522 78.794 82.2223 78.8597 81.9879 78.9139C81.3227 79.0685 80.6417 79.147 79.9643 79.147C78.5034 79.147 77.1195 78.7923 75.8941 78.1642C75.3635 77.8925 74.8605 77.5729 74.3972 77.2018C74.3438 77.1591 74.2943 77.1122 74.242 77.0681C73.6947 76.6081 73.2031 76.0828 72.7793 75.4995C72.7277 75.4283 72.6778 75.3557 72.6279 75.2831C72.224 74.6901 71.8901 74.0432 71.6355 73.3504C68.7928 74.1387 65.8197 75.5086 62.8165 77.6291C61.8443 78.3128 61.4477 79.5031 61.7257 80.5866C61.8077 80.9063 61.9455 81.2172 62.1481 81.5024C63.0377 82.7559 64.7787 83.0546 66.0377 82.1684C66.5997 81.7744 67.1533 81.4149 67.6985 81.0869C68.9173 80.3535 70.0933 79.7827 71.2291 79.3398C69.8934 80.3146 68.6037 81.2228 67.5715 81.945C67.1459 82.2427 66.7633 82.5099 66.4406 82.7361C65.8486 83.1526 65.1534 83.3725 64.4299 83.3725C63.2969 83.3725 62.2312 82.8236 61.5778 81.9033C61.3047 81.5184 61.1173 81.0911 61.019 80.6443C60.8508 80.652 60.6806 80.6565 60.5076 80.6565C57.7179 80.6478 54.1047 79.6563 49.5091 76.0932C48.2948 75.1479 46.5405 75.362 45.5913 76.5716C44.6428 77.781 44.858 79.5281 46.073 80.4737Z" fill="black"/>
<path d="M73.7924 75.6479C74.1025 76.0019 74.4419 76.3267 74.8058 76.6206C75.5924 77.2564 76.4927 77.7455 77.4604 78.0572C78.6224 78.431 79.8806 78.5484 81.1535 78.3622C81.3785 78.3292 81.6032 78.2892 81.8285 78.2371C81.8292 78.2371 81.8296 78.2371 81.8299 78.2368C82.7442 78.0249 83.5853 77.6663 84.3374 77.1949C85.477 76.4803 86.4088 75.5034 87.0677 74.3663C87.0785 74.3475 87.0901 74.3291 87.1009 74.31C88.0797 72.5903 88.4383 70.5149 87.9527 68.4377C86.9264 64.0486 82.5213 61.3186 78.1134 62.3407C73.7066 63.3624 70.9654 67.7495 71.9917 72.139C72.0217 72.2672 72.0552 72.3937 72.0908 72.5191C72.1546 72.7428 72.2285 72.961 72.3095 73.1754C72.6597 74.1005 73.1662 74.9329 73.7924 75.6479Z" fill="black"/>
<path d="M113.933 74.3663C114.592 75.5034 115.524 76.4803 116.663 77.1949C117.416 77.6663 118.257 78.0249 119.171 78.2368C119.171 78.2368 119.172 78.2368 119.172 78.2371C119.398 78.2892 119.623 78.3292 119.847 78.3622C121.121 78.5484 122.379 78.431 123.541 78.0572C124.508 77.7459 125.408 77.2564 126.195 76.6206C126.559 76.3267 126.899 76.0019 127.208 75.6479C127.835 74.9326 128.341 74.1002 128.691 73.1754C128.772 72.961 128.846 72.7428 128.91 72.5191C128.945 72.3937 128.979 72.2672 129.009 72.139C130.035 67.7495 127.294 63.3624 122.887 62.3407C118.48 61.3186 114.074 64.0486 113.048 68.4377C112.562 70.5149 112.921 72.5903 113.9 74.3097C113.911 74.3295 113.922 74.3475 113.933 74.3663Z" fill="black"/>
<path d="M98.6435 75.1101C101.354 75.7389 104.063 74.9465 105.987 73.2233C106.066 73.1517 106.145 73.0784 106.222 73.0034C107.307 71.9518 108.113 70.5903 108.482 69.0127C109.509 64.6232 106.767 60.2364 102.36 59.2147C97.9528 58.1923 93.5474 60.9222 92.5211 65.3114C91.8468 68.1942 92.7977 71.0756 94.7784 73.0037C94.8555 73.0788 94.9347 73.1514 95.0146 73.2233C96.0115 74.1196 97.2429 74.7853 98.6435 75.1101Z" fill="black"/>
</g>
<defs>
<clipPath id="clip0_236_148">
<rect width="111" height="103" fill="white" transform="translate(45 59)"/>
</clipPath>
</defs>
</svg>
